<svg version="1.1" id="Layer_1" xmlns="http://www.w3.org/2000/svg" xmlns:xlink="http://www.w3.org/1999/xlink" x="0px" y="0px"
	 width="100%" viewBox="0 0 1000 1000" enable-background="new 0 0 1000 1000" xml:space="preserve">
<path fill="#0A2647" opacity="1.000000" stroke="none" 
	d="
M466.000000,1001.000000 
	C310.666656,1001.000000 155.833328,1001.000000 1.000000,1001.000000 
	C1.000000,667.666687 1.000000,334.333344 1.000000,1.000000 
	C334.333344,1.000000 667.666687,1.000000 1001.000000,1.000000 
	C1001.000000,334.333344 1001.000000,667.666687 1001.000000,1001.000000 
	C822.833313,1001.000000 644.666687,1001.000000 466.000000,1001.000000 
M396.394012,782.120361 
	C441.354462,799.221497 487.864624,804.682373 535.457336,799.026184 
	C611.431519,789.997009 675.500427,756.922241 725.877625,699.411499 
	C784.194946,632.836121 808.790588,554.658569 798.847961,466.674988 
	C789.788330,386.505371 753.316528,320.177185 690.969116,269.107727 
	C633.051697,221.666962 566.098755,199.404434 490.911865,201.659256 
	C455.610962,202.717941 421.820892,209.813507 389.261200,222.937210 
	C331.476807,246.228088 285.118195,283.942047 250.917755,335.948822 
	C211.362122,396.098969 195.377594,462.405151 203.148880,533.980042 
	C210.807587,604.517944 240.540771,664.859314 290.703308,714.821960 
	C320.700531,744.699646 355.852203,767.067749 396.394012,782.120361 
z"/>
<path fill="#144272" opacity="1.000000" stroke="none" 
	d="
M396.030823,781.986389 
	C355.852203,767.067749 320.700531,744.699646 290.703308,714.821960 
	C240.540771,664.859314 210.807587,604.517944 203.148880,533.980042 
	C195.377594,462.405151 211.362122,396.098969 250.917755,335.948822 
	C285.118195,283.942047 331.476807,246.228088 389.261200,222.937210 
	C421.820892,209.813507 455.610962,202.717941 490.911865,201.659256 
	C566.098755,199.404434 633.051697,221.666962 690.969116,269.107727 
	C753.316528,320.177185 789.788330,386.505371 798.847961,466.674988 
	C808.790588,554.658569 784.194946,632.836121 725.877625,699.411499 
	C675.500427,756.922241 611.431519,789.997009 535.457336,799.026184 
	C487.864624,804.682373 441.354462,799.221497 396.030823,781.986389 
M706.755615,426.324646 
	C706.507019,417.168030 706.701111,407.973633 705.924255,398.862061 
	C703.867676,374.742859 691.933105,357.734192 668.943848,348.941193 
	C655.991516,343.987152 642.455811,342.106934 628.792969,342.066223 
	C550.145203,341.831757 471.495880,341.718781 392.848724,342.008575 
	C376.592804,342.068481 360.203827,343.024933 344.125732,345.317871 
	C322.307556,348.429413 302.756561,356.976562 288.952545,375.340637 
	C278.353607,389.440796 273.475616,405.897095 273.246124,423.034058 
	C272.592285,471.847778 273.020203,520.675842 273.001373,569.498291 
	C272.994720,586.744751 275.792145,603.371277 284.496887,618.513611 
	C296.233185,638.929504 315.385742,648.321289 337.236359,654.034607 
	C353.745300,658.351257 370.533081,658.537109 387.307251,658.571716 
	C473.119781,658.748230 558.932983,658.729187 644.745667,658.585632 
	C661.061646,658.558350 677.405029,658.144714 693.173279,652.825256 
	C711.463196,646.654968 725.248779,635.533447 731.119263,616.775330 
	C733.866028,607.998474 735.576355,598.566406 735.769470,589.389465 
	C736.185669,569.604309 736.148132,549.733765 734.763794,530.005798 
	C733.031616,505.321594 720.109375,486.913605 695.422668,480.480164 
	C691.295288,479.404510 687.119202,478.515259 682.290771,477.381409 
	C683.717957,476.319611 684.546387,475.573425 685.488770,475.021973 
	C696.606018,468.516357 702.764587,458.553497 704.953735,446.158691 
	C706.049683,439.953766 706.178467,433.578003 706.755615,426.324646 
z"/>
<path fill="#2C74B3" opacity="1.000000" stroke="none" 
	d="
M706.750122,426.802063 
	C706.178467,433.578003 706.049683,439.953766 704.953735,446.158691 
	C702.764587,458.553497 696.606018,468.516357 685.488770,475.021973 
	C684.546387,475.573425 683.717957,476.319611 682.290771,477.381409 
	C687.119202,478.515259 691.295288,479.404510 695.422668,480.480164 
	C720.109375,486.913605 733.031616,505.321594 734.763794,530.005798 
	C736.148132,549.733765 736.185669,569.604309 735.769470,589.389465 
	C735.576355,598.566406 733.866028,607.998474 731.119263,616.775330 
	C725.248779,635.533447 711.463196,646.654968 693.173279,652.825256 
	C677.405029,658.144714 661.061646,658.558350 644.745667,658.585632 
	C558.932983,658.729187 473.119781,658.748230 387.307251,658.571716 
	C370.533081,658.537109 353.745300,658.351257 337.236359,654.034607 
	C315.385742,648.321289 296.233185,638.929504 284.496887,618.513611 
	C275.792145,603.371277 272.994720,586.744751 273.001373,569.498291 
	C273.020203,520.675842 272.592285,471.847778 273.246124,423.034058 
	C273.475616,405.897095 278.353607,389.440796 288.952545,375.340637 
	C302.756561,356.976562 322.307556,348.429413 344.125732,345.317871 
	C360.203827,343.024933 376.592804,342.068481 392.848724,342.008575 
	C471.495880,341.718781 550.145203,341.831757 628.792969,342.066223 
	C642.455811,342.106934 655.991516,343.987152 668.943848,348.941193 
	C691.933105,357.734192 703.867676,374.742859 705.924255,398.862061 
	C706.701111,407.973633 706.507019,417.168030 706.750122,426.802063 
M373.087830,486.500000 
	C373.088135,507.992889 373.419983,529.492493 372.984283,550.976501 
	C372.633118,568.291565 383.248169,573.963318 394.974091,574.095642 
	C416.796997,574.342041 438.623962,574.214661 460.448700,574.336853 
	C464.485657,574.359436 466.044312,572.701172 466.037567,568.649780 
	C465.961731,523.165100 465.964813,477.680176 466.029449,432.195435 
	C466.034943,428.339233 464.501312,426.839447 460.689514,426.858765 
	C439.031006,426.968658 417.366943,426.693481 395.714752,427.091309 
	C380.674622,427.367676 373.238892,435.437134 373.116943,450.511780 
	C373.022583,462.173828 373.091614,473.837219 373.087830,486.500000 
M591.500000,583.862427 
	C601.481384,583.850342 611.466064,583.995728 621.443237,583.784912 
	C633.077209,583.539124 638.555969,578.159058 638.799316,566.506409 
	C638.944519,559.551636 638.545166,552.567078 638.038452,545.621582 
	C637.382080,536.624084 633.019897,532.184570 624.093445,532.051208 
	C606.131104,531.782776 588.162354,531.973999 570.196960,531.859863 
	C566.292419,531.835022 564.945251,533.545776 564.974487,537.298950 
	C565.082031,551.105774 565.071655,564.914124 564.984802,578.721191 
	C564.962158,582.323181 566.473694,583.883667 570.038452,583.850647 
	C576.858337,583.787415 583.679443,583.851074 591.500000,583.862427 
M611.381958,462.148773 
	C616.852722,459.187103 618.648804,454.115784 618.903809,448.394104 
	C619.140564,443.080231 619.122314,437.741730 618.927551,432.424652 
	C618.563538,422.482483 613.190308,417.004333 603.312073,416.792114 
	C592.501160,416.559784 581.680969,416.790222 570.867126,416.646790 
	C566.662109,416.590973 564.888977,418.179871 564.951965,422.525452 
	C565.125793,434.503510 565.137817,446.487701 564.948608,458.465302 
	C564.877991,462.938049 566.840881,464.229462 570.963623,464.167664 
	C581.444336,464.010529 591.930725,464.210144 602.410339,464.019440 
	C605.173706,463.969177 607.920715,463.019684 611.381958,462.148773 
z"/>
<path fill="#144272" opacity="1.000000" stroke="none" 
	d="
M373.087952,486.000000 
	C373.091614,473.837219 373.022583,462.173828 373.116943,450.511780 
	C373.238892,435.437134 380.674622,427.367676 395.714752,427.091309 
	C417.366943,426.693481 439.031006,426.968658 460.689514,426.858765 
	C464.501312,426.839447 466.034943,428.339233 466.029449,432.195435 
	C465.964813,477.680176 465.961731,523.165100 466.037567,568.649780 
	C466.044312,572.701172 464.485657,574.359436 460.448700,574.336853 
	C438.623962,574.214661 416.796997,574.342041 394.974091,574.095642 
	C383.248169,573.963318 372.633118,568.291565 372.984283,550.976501 
	C373.419983,529.492493 373.088135,507.992889 373.087952,486.000000 
z"/>
<path fill="#144272" opacity="1.000000" stroke="none" 
	d="
M591.000000,583.862183 
	C583.679443,583.851074 576.858337,583.787415 570.038452,583.850647 
	C566.473694,583.883667 564.962158,582.323181 564.984802,578.721191 
	C565.071655,564.914124 565.082031,551.105774 564.974487,537.298950 
	C564.945251,533.545776 566.292419,531.835022 570.196960,531.859863 
	C588.162354,531.973999 606.131104,531.782776 624.093445,532.051208 
	C633.019897,532.184570 637.382080,536.624084 638.038452,545.621582 
	C638.545166,552.567078 638.944519,559.551636 638.799316,566.506409 
	C638.555969,578.159058 633.077209,583.539124 621.443237,583.784912 
	C611.466064,583.995728 601.481384,583.850342 591.000000,583.862183 
z"/>
<path fill="#144272" opacity="1.000000" stroke="none" 
	d="
M611.028564,462.315918 
	C607.920715,463.019684 605.173706,463.969177 602.410339,464.019440 
	C591.930725,464.210144 581.444336,464.010529 570.963623,464.167664 
	C566.840881,464.229462 564.877991,462.938049 564.948608,458.465302 
	C565.137817,446.487701 565.125793,434.503510 564.951965,422.525452 
	C564.888977,418.179871 566.662109,416.590973 570.867126,416.646790 
	C581.680969,416.790222 592.501160,416.559784 603.312073,416.792114 
	C613.190308,417.004333 618.563538,422.482483 618.927551,432.424652 
	C619.122314,437.741730 619.140564,443.080231 618.903809,448.394104 
	C618.648804,454.115784 616.852722,459.187103 611.028564,462.315918 
z"/>
</svg>